<svg xmlns="http://www.w3.org/2000/svg" xmlns:xlink="http://www.w3.org/1999/xlink" width="500" zoomAndPan="magnify" viewBox="0 0 375 374.999991" height="500" preserveAspectRatio="xMidYMid meet" version="1.0"><path fill="#b0a8fe" d="M 374.867188 180.753906 L 250.679688 180.753906 L 372.128906 154.808594 L 369.355469 141.753906 L 252.28125 166.761719 L 362.210938 119.378906 L 356.902344 107.089844 L 257.191406 150.101562 L 348.253906 90.929688 L 340.972656 79.742188 L 237.089844 147.226562 L 324.675781 59.605469 L 315.261719 50.1875 L 227.4375 138.011719 L 294.957031 33.761719 L 283.769531 26.515625 L 218.65625 126.960938 L 262.867188 15.726562 L 250.480469 10.785156 L 210.339844 111.699219 L 232.914062 5.476562 L 219.859375 2.703125 L 194.113281 123.886719 L 194.113281 0 L 180.753906 0 L 180.753906 124.222656 L 154.808594 2.738281 L 141.753906 5.542969 L 166.761719 122.585938 L 119.378906 12.65625 L 107.089844 17.964844 L 150.066406 117.640625 L 90.929688 26.613281 L 79.742188 33.894531 L 147.226562 137.777344 L 59.605469 50.1875 L 50.1875 59.605469 L 138.011719 147.460938 L 33.761719 79.910156 L 26.515625 91.128906 L 126.960938 156.210938 L 15.726562 112 L 10.785156 124.386719 L 111.699219 164.527344 L 5.476562 141.953125 L 2.703125 155.007812 L 123.851562 180.753906 L 0 180.753906 L 0 194.113281 L 124.222656 194.113281 L 2.738281 220.058594 L 5.542969 233.113281 L 122.585938 208.136719 L 12.65625 255.519531 L 17.964844 267.777344 L 117.675781 224.800781 L 26.613281 283.9375 L 33.894531 295.125 L 137.777344 227.671875 L 50.1875 315.261719 L 59.605469 324.710938 L 147.460938 236.855469 L 79.910156 341.105469 L 91.128906 348.386719 L 156.210938 247.90625 L 112 359.136719 L 124.421875 364.082031 L 164.527344 263.167969 L 141.953125 369.390625 L 155.007812 372.160156 L 180.753906 250.980469 L 180.753906 374.867188 L 194.113281 374.867188 L 194.113281 250.679688 L 220.058594 372.128906 L 233.113281 369.355469 L 208.136719 252.28125 L 255.519531 362.210938 L 267.777344 356.902344 L 224.800781 257.222656 L 283.9375 348.253906 L 295.125 340.972656 L 227.671875 237.089844 L 315.261719 324.710938 L 324.675781 315.261719 L 236.855469 227.4375 L 341.105469 294.957031 L 348.386719 283.769531 L 247.90625 218.65625 L 359.136719 262.867188 L 364.082031 250.480469 L 263.203125 210.375 L 369.390625 232.914062 L 372.160156 219.859375 L 251.011719 194.113281 L 374.867188 194.113281 Z M 374.867188 180.753906 " fill-opacity="1" fill-rule="nonzero"/></svg>