<svg xmlns="http://www.w3.org/2000/svg" xmlns:xlink="http://www.w3.org/1999/xlink" width="20" zoomAndPan="magnify" viewBox="0 0 375 374.999991" height="20" preserveAspectRatio="xMidYMid meet" version="1.0"><defs><clipPath id="d21aa55732"><path d="M 177.902344 5.824219 L 373.449219 5.824219 L 373.449219 368.824219 L 177.902344 368.824219 Z M 177.902344 5.824219 " clip-rule="nonzero"/></clipPath><clipPath id="09fefa4df5"><path d="M 1.382812 5.824219 L 196.929688 5.824219 L 196.929688 368.824219 L 1.382812 368.824219 Z M 1.382812 5.824219 " clip-rule="nonzero"/></clipPath></defs><g clip-path="url(#d21aa55732)"><path fill="#0f1729" d="M 208.707031 10.917969 C 201.480469 3.953125 189.964844 4.144531 182.996094 11.371094 C 176.191406 18.402344 176.191406 29.597656 182.996094 36.628906 L 333.867188 187.5 L 182.996094 338.367188 C 176.03125 345.59375 176.222656 357.109375 183.449219 364.046875 C 190.480469 370.851562 201.644531 370.882812 208.707031 364.078125 L 365.09375 207.691406 C 376.253906 196.53125 376.253906 178.464844 365.09375 167.304688 L 208.707031 10.917969 " fill-opacity="1" fill-rule="nonzero"/></g><g clip-path="url(#09fefa4df5)"><path fill="#0f1729" d="M 32.1875 10.917969 C 24.964844 3.953125 13.449219 4.144531 6.480469 11.371094 C -0.328125 18.402344 -0.328125 29.597656 6.480469 36.628906 L 157.347656 187.5 L 6.480469 338.367188 C -0.488281 345.59375 -0.292969 357.109375 6.929688 364.046875 C 13.964844 370.851562 25.125 370.882812 32.1875 364.078125 L 188.574219 207.691406 C 199.734375 196.53125 199.734375 178.464844 188.574219 167.304688 L 32.1875 10.917969 " fill-opacity="1" fill-rule="nonzero"/></g></svg>