<svg xmlns="http://www.w3.org/2000/svg" xmlns:xlink="http://www.w3.org/1999/xlink" width="20" zoomAndPan="magnify" viewBox="0 0 375 374.999991" height="20" preserveAspectRatio="xMidYMid meet" version="1.0"><defs><clipPath id="d11d6992e5"><path d="M 178.070312 6.175781 L 373.617188 6.175781 L 373.617188 368.824219 L 178.070312 368.824219 Z M 178.070312 6.175781 " clip-rule="nonzero"/></clipPath><clipPath id="3e82b44d7b"><path d="M 1.550781 6.175781 L 197.097656 6.175781 L 197.097656 368.824219 L 1.550781 368.824219 Z M 1.550781 6.175781 " clip-rule="nonzero"/></clipPath></defs><g clip-path="url(#d11d6992e5)"><path fill="#0f1729" d="M 342.808594 364.078125 C 350.035156 371.046875 361.550781 370.851562 368.519531 363.625 C 375.324219 356.59375 375.324219 345.402344 368.519531 338.367188 L 217.648438 187.5 L 368.519531 36.628906 C 375.484375 29.402344 375.292969 17.886719 368.066406 10.953125 C 361.035156 4.144531 349.875 4.113281 342.808594 10.917969 L 186.421875 167.304688 C 175.261719 178.464844 175.261719 196.53125 186.421875 207.691406 L 342.808594 364.078125 " fill-opacity="1" fill-rule="nonzero"/></g><g clip-path="url(#3e82b44d7b)"><path fill="#0f1729" d="M 166.292969 364.078125 C 173.515625 371.046875 185.03125 370.851562 192 363.625 C 198.808594 356.59375 198.808594 345.402344 192 338.367188 L 41.132812 187.5 L 192 36.628906 C 198.96875 29.402344 198.773438 17.886719 191.550781 10.953125 C 184.515625 4.144531 173.355469 4.113281 166.292969 10.917969 L 9.90625 167.304688 C -1.253906 178.464844 -1.253906 196.53125 9.90625 207.691406 L 166.292969 364.078125 " fill-opacity="1" fill-rule="nonzero"/></g></svg>