<svg xmlns="http://www.w3.org/2000/svg" xmlns:xlink="http://www.w3.org/1999/xlink" width="500" zoomAndPan="magnify" viewBox="0 0 375 374.999991" height="500" preserveAspectRatio="xMidYMid meet" version="1.0"><defs><clipPath id="a4c399b28e"><path d="M 0 281 L 375 281 L 375 318.75 L 0 318.75 Z M 0 281 " clip-rule="nonzero"/></clipPath><clipPath id="a50255b9b2"><path d="M 0 56.25 L 375 56.25 L 375 94 L 0 94 Z M 0 56.25 " clip-rule="nonzero"/></clipPath></defs><path fill="#192441" d="M 356.25 168.75 L 18.75 168.75 C 18.136719 168.75 17.523438 168.78125 16.914062 168.839844 C 16.300781 168.902344 15.695312 168.992188 15.09375 169.109375 C 14.488281 169.230469 13.894531 169.378906 13.308594 169.558594 C 12.71875 169.734375 12.140625 169.941406 11.574219 170.175781 C 11.007812 170.414062 10.453125 170.675781 9.910156 170.964844 C 9.371094 171.253906 8.84375 171.570312 8.332031 171.910156 C 7.824219 172.25 7.328125 172.617188 6.855469 173.007812 C 6.378906 173.394531 5.925781 173.808594 5.492188 174.242188 C 5.058594 174.675781 4.644531 175.128906 4.257812 175.605469 C 3.867188 176.078125 3.5 176.574219 3.160156 177.082031 C 2.820312 177.59375 2.503906 178.121094 2.214844 178.660156 C 1.925781 179.203125 1.664062 179.757812 1.425781 180.324219 C 1.191406 180.890625 0.984375 181.46875 0.808594 182.058594 C 0.628906 182.644531 0.480469 183.238281 0.359375 183.84375 C 0.242188 184.445312 0.152344 185.050781 0.0898438 185.664062 C 0.03125 186.273438 0 186.886719 0 187.5 C 0 188.113281 0.03125 188.726562 0.0898438 189.335938 C 0.152344 189.949219 0.242188 190.554688 0.359375 191.15625 C 0.480469 191.761719 0.628906 192.355469 0.808594 192.941406 C 0.984375 193.53125 1.191406 194.109375 1.425781 194.675781 C 1.664062 195.242188 1.925781 195.796875 2.214844 196.339844 C 2.503906 196.878906 2.820312 197.40625 3.160156 197.917969 C 3.5 198.425781 3.867188 198.921875 4.257812 199.394531 C 4.644531 199.871094 5.058594 200.324219 5.492188 200.757812 C 5.925781 201.191406 6.378906 201.605469 6.855469 201.992188 C 7.328125 202.382812 7.824219 202.75 8.332031 203.089844 C 8.84375 203.429688 9.371094 203.746094 9.910156 204.035156 C 10.453125 204.324219 11.007812 204.585938 11.574219 204.824219 C 12.140625 205.058594 12.71875 205.265625 13.308594 205.441406 C 13.894531 205.621094 14.488281 205.769531 15.09375 205.890625 C 15.695312 206.007812 16.300781 206.097656 16.914062 206.160156 C 17.523438 206.21875 18.136719 206.25 18.75 206.25 L 356.25 206.25 C 356.863281 206.25 357.476562 206.21875 358.085938 206.160156 C 358.699219 206.097656 359.304688 206.007812 359.90625 205.890625 C 360.511719 205.769531 361.105469 205.621094 361.691406 205.441406 C 362.28125 205.265625 362.859375 205.058594 363.425781 204.824219 C 363.992188 204.585938 364.546875 204.324219 365.089844 204.035156 C 365.628906 203.746094 366.15625 203.429688 366.667969 203.089844 C 367.175781 202.75 367.671875 202.382812 368.144531 201.992188 C 368.621094 201.605469 369.074219 201.191406 369.507812 200.757812 C 369.941406 200.324219 370.355469 199.871094 370.742188 199.394531 C 371.132812 198.921875 371.5 198.425781 371.839844 197.917969 C 372.179688 197.40625 372.496094 196.878906 372.785156 196.339844 C 373.074219 195.796875 373.335938 195.242188 373.574219 194.675781 C 373.808594 194.109375 374.015625 193.53125 374.191406 192.941406 C 374.371094 192.355469 374.519531 191.761719 374.640625 191.15625 C 374.757812 190.554688 374.847656 189.949219 374.910156 189.335938 C 374.96875 188.726562 375 188.113281 375 187.5 C 375 186.886719 374.96875 186.273438 374.910156 185.664062 C 374.847656 185.050781 374.757812 184.445312 374.640625 183.84375 C 374.519531 183.238281 374.371094 182.644531 374.191406 182.058594 C 374.015625 181.46875 373.808594 180.890625 373.574219 180.324219 C 373.335938 179.757812 373.074219 179.203125 372.785156 178.660156 C 372.496094 178.121094 372.179688 177.59375 371.839844 177.082031 C 371.5 176.574219 371.132812 176.078125 370.742188 175.605469 C 370.355469 175.128906 369.941406 174.675781 369.507812 174.242188 C 369.074219 173.808594 368.621094 173.394531 368.144531 173.007812 C 367.671875 172.617188 367.175781 172.25 366.667969 171.910156 C 366.15625 171.570312 365.628906 171.253906 365.089844 170.964844 C 364.546875 170.675781 363.992188 170.414062 363.425781 170.175781 C 362.859375 169.941406 362.28125 169.734375 361.691406 169.558594 C 361.105469 169.378906 360.511719 169.230469 359.90625 169.109375 C 359.304688 168.992188 358.699219 168.902344 358.085938 168.839844 C 357.476562 168.78125 356.863281 168.75 356.25 168.75 Z M 356.25 168.75 " fill-opacity="1" fill-rule="nonzero"/><g clip-path="url(#a4c399b28e)"><path fill="#192441" d="M 356.25 281.25 L 18.75 281.25 C 18.136719 281.25 17.523438 281.28125 16.914062 281.339844 C 16.300781 281.402344 15.695312 281.492188 15.09375 281.609375 C 14.488281 281.730469 13.894531 281.878906 13.308594 282.058594 C 12.71875 282.234375 12.140625 282.441406 11.574219 282.675781 C 11.007812 282.914062 10.453125 283.175781 9.910156 283.464844 C 9.371094 283.753906 8.84375 284.070312 8.332031 284.410156 C 7.824219 284.75 7.328125 285.117188 6.855469 285.507812 C 6.378906 285.894531 5.925781 286.308594 5.492188 286.742188 C 5.058594 287.175781 4.644531 287.628906 4.257812 288.105469 C 3.867188 288.578125 3.5 289.074219 3.160156 289.582031 C 2.820312 290.09375 2.503906 290.621094 2.214844 291.160156 C 1.925781 291.703125 1.664062 292.257812 1.425781 292.824219 C 1.191406 293.390625 0.984375 293.96875 0.808594 294.558594 C 0.628906 295.144531 0.480469 295.738281 0.359375 296.34375 C 0.242188 296.945312 0.152344 297.550781 0.0898438 298.164062 C 0.03125 298.773438 0 299.386719 0 300 C 0 300.613281 0.03125 301.226562 0.0898438 301.835938 C 0.152344 302.449219 0.242188 303.054688 0.359375 303.65625 C 0.480469 304.261719 0.628906 304.855469 0.808594 305.441406 C 0.984375 306.03125 1.191406 306.609375 1.425781 307.175781 C 1.664062 307.742188 1.925781 308.296875 2.214844 308.839844 C 2.503906 309.378906 2.820312 309.90625 3.160156 310.417969 C 3.5 310.925781 3.867188 311.421875 4.257812 311.894531 C 4.644531 312.371094 5.058594 312.824219 5.492188 313.257812 C 5.925781 313.691406 6.378906 314.105469 6.855469 314.492188 C 7.328125 314.882812 7.824219 315.25 8.332031 315.589844 C 8.84375 315.929688 9.371094 316.246094 9.910156 316.535156 C 10.453125 316.824219 11.007812 317.085938 11.574219 317.324219 C 12.140625 317.558594 12.71875 317.765625 13.308594 317.941406 C 13.894531 318.121094 14.488281 318.269531 15.09375 318.390625 C 15.695312 318.507812 16.300781 318.597656 16.914062 318.660156 C 17.523438 318.71875 18.136719 318.75 18.75 318.75 L 356.25 318.75 C 356.863281 318.75 357.476562 318.71875 358.085938 318.660156 C 358.699219 318.597656 359.304688 318.507812 359.90625 318.390625 C 360.511719 318.269531 361.105469 318.121094 361.691406 317.941406 C 362.28125 317.765625 362.859375 317.558594 363.425781 317.324219 C 363.992188 317.085938 364.546875 316.824219 365.089844 316.535156 C 365.628906 316.246094 366.15625 315.929688 366.667969 315.589844 C 367.175781 315.25 367.671875 314.882812 368.144531 314.492188 C 368.621094 314.105469 369.074219 313.691406 369.507812 313.257812 C 369.941406 312.824219 370.355469 312.371094 370.742188 311.894531 C 371.132812 311.421875 371.5 310.925781 371.839844 310.417969 C 372.179688 309.90625 372.496094 309.378906 372.785156 308.839844 C 373.074219 308.296875 373.335938 307.742188 373.574219 307.175781 C 373.808594 306.609375 374.015625 306.03125 374.191406 305.441406 C 374.371094 304.855469 374.519531 304.261719 374.640625 303.65625 C 374.757812 303.054688 374.847656 302.449219 374.910156 301.835938 C 374.96875 301.226562 375 300.613281 375 300 C 375 299.386719 374.96875 298.773438 374.910156 298.164062 C 374.847656 297.550781 374.757812 296.945312 374.640625 296.34375 C 374.519531 295.738281 374.371094 295.144531 374.191406 294.558594 C 374.015625 293.96875 373.808594 293.390625 373.574219 292.824219 C 373.335938 292.257812 373.074219 291.703125 372.785156 291.160156 C 372.496094 290.621094 372.179688 290.09375 371.839844 289.582031 C 371.5 289.074219 371.132812 288.578125 370.742188 288.105469 C 370.355469 287.628906 369.941406 287.175781 369.507812 286.742188 C 369.074219 286.308594 368.621094 285.894531 368.144531 285.507812 C 367.671875 285.117188 367.175781 284.75 366.667969 284.410156 C 366.15625 284.070312 365.628906 283.753906 365.089844 283.464844 C 364.546875 283.175781 363.992188 282.914062 363.425781 282.675781 C 362.859375 282.441406 362.28125 282.234375 361.691406 282.058594 C 361.105469 281.878906 360.511719 281.730469 359.90625 281.609375 C 359.304688 281.492188 358.699219 281.402344 358.085938 281.339844 C 357.476562 281.28125 356.863281 281.25 356.25 281.25 Z M 356.25 281.25 " fill-opacity="1" fill-rule="nonzero"/></g><g clip-path="url(#a50255b9b2)"><path fill="#192441" d="M 18.75 93.75 L 356.25 93.75 C 356.863281 93.75 357.476562 93.71875 358.085938 93.660156 C 358.699219 93.597656 359.304688 93.507812 359.90625 93.390625 C 360.511719 93.269531 361.105469 93.121094 361.691406 92.941406 C 362.28125 92.765625 362.859375 92.558594 363.425781 92.324219 C 363.992188 92.085938 364.546875 91.824219 365.089844 91.535156 C 365.628906 91.246094 366.15625 90.929688 366.667969 90.589844 C 367.175781 90.25 367.671875 89.882812 368.144531 89.492188 C 368.621094 89.105469 369.074219 88.691406 369.507812 88.257812 C 369.941406 87.824219 370.355469 87.371094 370.742188 86.894531 C 371.132812 86.421875 371.5 85.925781 371.839844 85.417969 C 372.179688 84.90625 372.496094 84.378906 372.785156 83.839844 C 373.074219 83.296875 373.335938 82.742188 373.574219 82.175781 C 373.808594 81.609375 374.015625 81.03125 374.191406 80.441406 C 374.371094 79.855469 374.519531 79.261719 374.640625 78.65625 C 374.757812 78.054688 374.847656 77.449219 374.910156 76.835938 C 374.96875 76.226562 375 75.613281 375 75 C 375 74.386719 374.96875 73.773438 374.910156 73.164062 C 374.847656 72.550781 374.757812 71.945312 374.640625 71.34375 C 374.519531 70.738281 374.371094 70.144531 374.191406 69.558594 C 374.015625 68.96875 373.808594 68.390625 373.574219 67.824219 C 373.335938 67.257812 373.074219 66.703125 372.785156 66.160156 C 372.496094 65.621094 372.179688 65.09375 371.839844 64.582031 C 371.5 64.074219 371.132812 63.578125 370.742188 63.105469 C 370.355469 62.628906 369.941406 62.175781 369.507812 61.742188 C 369.074219 61.308594 368.621094 60.894531 368.144531 60.507812 C 367.671875 60.117188 367.175781 59.75 366.667969 59.410156 C 366.15625 59.070312 365.628906 58.753906 365.089844 58.464844 C 364.546875 58.175781 363.992188 57.914062 363.425781 57.675781 C 362.859375 57.441406 362.28125 57.234375 361.691406 57.058594 C 361.105469 56.878906 360.511719 56.730469 359.90625 56.609375 C 359.304688 56.492188 358.699219 56.402344 358.085938 56.339844 C 357.476562 56.28125 356.863281 56.25 356.25 56.25 L 18.75 56.25 C 18.136719 56.25 17.523438 56.28125 16.914062 56.339844 C 16.300781 56.402344 15.695312 56.492188 15.09375 56.609375 C 14.488281 56.730469 13.894531 56.878906 13.308594 57.058594 C 12.71875 57.234375 12.140625 57.441406 11.574219 57.675781 C 11.007812 57.914062 10.453125 58.175781 9.910156 58.464844 C 9.371094 58.753906 8.84375 59.070312 8.332031 59.410156 C 7.824219 59.75 7.328125 60.117188 6.855469 60.507812 C 6.378906 60.894531 5.925781 61.308594 5.492188 61.742188 C 5.058594 62.175781 4.644531 62.628906 4.257812 63.105469 C 3.867188 63.578125 3.5 64.074219 3.160156 64.582031 C 2.820312 65.09375 2.503906 65.621094 2.214844 66.160156 C 1.925781 66.703125 1.664062 67.257812 1.425781 67.824219 C 1.191406 68.390625 0.984375 68.96875 0.808594 69.558594 C 0.628906 70.144531 0.480469 70.738281 0.359375 71.34375 C 0.242188 71.945312 0.152344 72.550781 0.0898438 73.164062 C 0.03125 73.773438 0 74.386719 0 75 C 0 75.613281 0.03125 76.226562 0.0898438 76.835938 C 0.152344 77.449219 0.242188 78.054688 0.359375 78.65625 C 0.480469 79.261719 0.628906 79.855469 0.808594 80.441406 C 0.984375 81.03125 1.191406 81.609375 1.425781 82.175781 C 1.664062 82.742188 1.925781 83.296875 2.214844 83.839844 C 2.503906 84.378906 2.820312 84.90625 3.160156 85.417969 C 3.5 85.925781 3.867188 86.421875 4.257812 86.894531 C 4.644531 87.371094 5.058594 87.824219 5.492188 88.257812 C 5.925781 88.691406 6.378906 89.105469 6.855469 89.492188 C 7.328125 89.882812 7.824219 90.25 8.332031 90.589844 C 8.84375 90.929688 9.371094 91.246094 9.910156 91.535156 C 10.453125 91.824219 11.007812 92.085938 11.574219 92.324219 C 12.140625 92.558594 12.71875 92.765625 13.308594 92.941406 C 13.894531 93.121094 14.488281 93.269531 15.09375 93.390625 C 15.695312 93.507812 16.300781 93.597656 16.914062 93.660156 C 17.523438 93.71875 18.136719 93.75 18.75 93.75 Z M 18.75 93.75 " fill-opacity="1" fill-rule="nonzero"/></g></svg>