<svg xmlns="http://www.w3.org/2000/svg" xmlns:xlink="http://www.w3.org/1999/xlink" width="1080" zoomAndPan="magnify" viewBox="0 0 810 809.999993" height="1080" preserveAspectRatio="xMidYMid meet" version="1.0"><defs><clipPath id="82f29ab178"><path d="M 1 92 L 809 92 L 809 719.074219 L 1 719.074219 Z M 1 92 " clip-rule="nonzero"/></clipPath></defs><g clip-path="url(#82f29ab178)"><path fill="#141414" d="M 131.835938 289.613281 C 128.300781 289.613281 122.492188 291.746094 119.925781 294.414062 L 5.59375 411.132812 C 0.464844 416.316406 0.472656 422.695312 5.59375 427.808594 L 185.316406 598.5 L 302.035156 715.226562 C 304.625 717.8125 308.023438 719.953125 311.5625 719.953125 C 314.175781 719.953125 316.652344 717.210938 318.703125 715.226562 L 435.421875 600.886719 L 804.640625 231.664062 C 809.835938 226.558594 809.816406 217.738281 804.640625 212.609375 L 687.914062 95.890625 C 682.730469 90.785156 676.355469 90.707031 671.238281 95.890625 L 311.558594 455.574219 L 141.367188 294.410156 C 138.796875 291.820312 135.375 289.609375 131.839844 289.609375 L 131.84375 289.609375 Z M 131.835938 289.613281 " fill-opacity="1" fill-rule="nonzero"/></g></svg>