<svg xmlns="http://www.w3.org/2000/svg" xmlns:xlink="http://www.w3.org/1999/xlink" width="500" zoomAndPan="magnify" viewBox="0 0 375 374.999991" height="500" preserveAspectRatio="xMidYMid meet" version="1.0"><defs><clipPath id="1f6cb14e69"><path d="M 32.046875 40 L 343 40 L 343 64 L 32.046875 64 Z M 32.046875 40 " clip-rule="nonzero"/></clipPath></defs><path fill="#141414" d="M 70.632812 374.832031 L 304.355469 374.832031 L 322.503906 79.882812 L 52.484375 79.882812 Z M 251.269531 111.769531 C 251.269531 107.367188 254.835938 103.796875 259.238281 103.796875 C 263.640625 103.796875 267.210938 107.367188 267.210938 111.769531 L 267.210938 342.945312 C 267.210938 347.347656 263.640625 350.917969 259.238281 350.917969 C 254.835938 350.917969 251.269531 347.347656 251.269531 342.945312 Z M 203.4375 111.769531 C 203.4375 107.367188 207.007812 103.796875 211.410156 103.796875 C 215.8125 103.796875 219.378906 107.367188 219.378906 111.769531 L 219.378906 342.945312 C 219.378906 347.347656 215.8125 350.917969 211.410156 350.917969 C 207.007812 350.917969 203.4375 347.347656 203.4375 342.945312 Z M 155.609375 111.769531 C 155.609375 107.367188 159.179688 103.796875 163.578125 103.796875 C 167.980469 103.796875 171.550781 107.367188 171.550781 111.769531 L 171.550781 342.945312 C 171.550781 347.347656 167.980469 350.917969 163.578125 350.917969 C 159.179688 350.917969 155.609375 347.347656 155.609375 342.945312 Z M 107.777344 111.769531 C 107.777344 107.367188 111.347656 103.796875 115.75 103.796875 C 120.152344 103.796875 123.722656 107.367188 123.722656 111.769531 L 123.722656 342.945312 C 123.722656 347.347656 120.152344 350.917969 115.75 350.917969 C 111.347656 350.917969 107.777344 347.347656 107.777344 342.945312 Z M 107.777344 111.769531 " fill-opacity="1" fill-rule="nonzero"/><g clip-path="url(#1f6cb14e69)"><path fill="#141414" d="M 32.046875 40.023438 L 32.046875 63.941406 C 42.117188 63.941406 329.433594 63.941406 342.941406 63.941406 L 342.941406 40.023438 C 326.234375 40.023438 38.679688 40.023438 32.046875 40.023438 Z M 32.046875 40.023438 " fill-opacity="1" fill-rule="nonzero"/></g><path fill="#141414" d="M 195.464844 0.167969 L 179.523438 0.167969 C 164.691406 0.167969 152.195312 10.34375 148.644531 24.082031 L 226.34375 24.082031 C 222.796875 10.34375 210.296875 0.167969 195.464844 0.167969 Z M 195.464844 0.167969 " fill-opacity="1" fill-rule="nonzero"/></svg>