<svg xmlns="http://www.w3.org/2000/svg" xmlns:xlink="http://www.w3.org/1999/xlink" width="500" zoomAndPan="magnify" viewBox="0 0 375 374.999991" height="500" preserveAspectRatio="xMidYMid meet" version="1.0"><defs><g/><clipPath id="bbf30666b3"><path d="M 95.320312 97.074219 L 273.820312 97.074219 L 273.820312 274.824219 L 95.320312 274.824219 Z M 95.320312 97.074219 " clip-rule="nonzero"/></clipPath></defs><g clip-path="url(#bbf30666b3)"><path fill="#b0a8fe" d="M 273.640625 274.53125 L 95.429688 274.53125 C 95.429688 228.03125 131.050781 189.859375 176.472656 185.804688 C 131.050781 181.746094 95.429688 143.574219 95.429688 97.074219 L 273.640625 97.074219 C 273.640625 143.574219 238.019531 181.746094 192.597656 185.804688 C 238.019531 189.898438 273.640625 228.066406 273.640625 274.53125 Z M 273.640625 274.53125 " fill-opacity="1" fill-rule="nonzero"/></g><g fill="#141414" fill-opacity="1"><g transform="translate(0.0000045, 213.134908)"><g><path d="M 9.640625 0 L 9.640625 -90.875 L 32.625 -90.875 L 32.625 -19.546875 L 68.6875 -19.546875 L 68.6875 0 Z M 9.640625 0 "/></g></g></g><g fill="#141414" fill-opacity="1"><g transform="translate(71.716934, 213.134908)"><g><path d="M 67.234375 -28.390625 L 26.9375 -28.390625 C 26.9375 -24.171875 27.265625 -21.222656 27.921875 -19.546875 C 28.585938 -17.867188 30.039062 -16.765625 32.28125 -16.234375 C 34.53125 -15.710938 38.5625 -15.453125 44.375 -15.453125 C 50.625 -15.453125 57.363281 -15.804688 64.59375 -16.515625 L 64.59375 -1.328125 C 61.769531 -0.617188 58.003906 -0.046875 53.296875 0.390625 C 48.585938 0.835938 43.941406 1.0625 39.359375 1.0625 C 29.054688 1.0625 21.550781 -0.0546875 16.84375 -2.296875 C 12.132812 -4.546875 9.117188 -7.960938 7.796875 -12.546875 C 6.472656 -17.128906 5.8125 -24.128906 5.8125 -33.546875 C 5.8125 -42.796875 6.472656 -49.753906 7.796875 -54.421875 C 9.117188 -59.085938 12 -62.585938 16.4375 -64.921875 C 20.882812 -67.253906 27.863281 -68.421875 37.375 -68.421875 C 46.882812 -68.421875 53.726562 -67.296875 57.90625 -65.046875 C 62.09375 -62.804688 64.691406 -59.460938 65.703125 -55.015625 C 66.722656 -50.566406 67.234375 -43.410156 67.234375 -33.546875 Z M 37.25 -52.96875 C 34.070312 -52.96875 31.78125 -52.65625 30.375 -52.03125 C 28.96875 -51.414062 28.039062 -50.207031 27.59375 -48.40625 C 27.15625 -46.601562 26.9375 -43.585938 26.9375 -39.359375 L 47.28125 -39.359375 C 47.28125 -43.585938 47.015625 -46.625 46.484375 -48.46875 C 45.960938 -50.320312 45.039062 -51.535156 43.71875 -52.109375 C 42.394531 -52.679688 40.238281 -52.96875 37.25 -52.96875 Z M 37.25 -52.96875 "/></g></g></g><g fill="#141414" fill-opacity="1"><g transform="translate(145.018776, 213.134908)"><g><path d="M 48.46875 -35.53125 C 48.46875 -40.457031 48.269531 -43.890625 47.875 -45.828125 C 47.476562 -47.765625 46.707031 -49 45.5625 -49.53125 C 44.414062 -50.0625 42.304688 -50.328125 39.234375 -50.328125 C 36.234375 -50.328125 34.050781 -49.90625 32.6875 -49.0625 C 31.320312 -48.226562 30.421875 -46.796875 29.984375 -44.765625 C 29.546875 -42.742188 29.328125 -39.53125 29.328125 -35.125 L 29.328125 0 L 8.0625 0 L 8.0625 -67.359375 L 28.265625 -67.359375 L 28.796875 -59.296875 L 29.984375 -59.296875 C 33.410156 -65.378906 39.878906 -68.421875 49.390625 -68.421875 C 55.117188 -68.421875 59.457031 -67.425781 62.40625 -65.4375 C 65.351562 -63.457031 67.3125 -60.640625 68.28125 -56.984375 C 69.25 -53.335938 69.734375 -48.390625 69.734375 -42.140625 L 69.734375 0 L 48.46875 0 Z M 48.46875 -35.53125 "/></g></g></g><g fill="#141414" fill-opacity="1"><g transform="translate(222.811172, 213.134908)"><g><path d="M 27.875 1.0625 C 22.40625 1.0625 18.109375 0.0507812 14.984375 -1.96875 C 11.859375 -4 9.546875 -7.5 8.046875 -12.46875 C 6.554688 -17.445312 5.8125 -24.429688 5.8125 -33.421875 C 5.8125 -42.484375 6.535156 -49.523438 7.984375 -54.546875 C 9.441406 -59.566406 11.734375 -63.109375 14.859375 -65.171875 C 17.984375 -67.242188 22.273438 -68.28125 27.734375 -68.28125 C 32.222656 -68.28125 35.984375 -67.726562 39.015625 -66.625 C 42.054688 -65.53125 44.546875 -63.398438 46.484375 -60.234375 L 47.546875 -60.234375 L 47.546875 -98.140625 L 68.8125 -98.140625 L 68.8125 0 L 48.609375 0 L 48.078125 -7.921875 L 47.015625 -7.921875 C 45.171875 -4.492188 42.617188 -2.140625 39.359375 -0.859375 C 36.097656 0.421875 32.269531 1.0625 27.875 1.0625 Z M 37.375 -16.90625 C 40.101562 -16.90625 42.128906 -17.234375 43.453125 -17.890625 C 44.773438 -18.554688 45.742188 -19.722656 46.359375 -21.390625 C 46.890625 -22.804688 47.21875 -24.4375 47.34375 -26.28125 C 47.476562 -28.132812 47.546875 -30.601562 47.546875 -33.6875 C 47.546875 -39.488281 47.191406 -43.445312 46.484375 -45.5625 C 45.867188 -47.414062 44.898438 -48.671875 43.578125 -49.328125 C 42.265625 -49.992188 40.195312 -50.328125 37.375 -50.328125 C 34.03125 -50.328125 31.695312 -49.992188 30.375 -49.328125 C 29.050781 -48.671875 28.171875 -47.265625 27.734375 -45.109375 C 27.296875 -42.953125 27.078125 -39.144531 27.078125 -33.6875 C 27.078125 -28.132812 27.296875 -24.28125 27.734375 -22.125 C 28.171875 -19.96875 29.050781 -18.554688 30.375 -17.890625 C 31.695312 -17.234375 34.03125 -16.90625 37.375 -16.90625 Z M 37.375 -16.90625 "/></g></g></g><g fill="#141414" fill-opacity="1"><g transform="translate(299.679041, 213.134908)"><g><path d="M 37.640625 1.0625 C 27.597656 1.0625 20.375 0.0703125 15.96875 -1.90625 C 11.570312 -3.894531 8.78125 -7.15625 7.59375 -11.6875 C 6.40625 -16.21875 5.8125 -23.550781 5.8125 -33.6875 C 5.8125 -43.894531 6.40625 -51.242188 7.59375 -55.734375 C 8.78125 -60.222656 11.570312 -63.457031 15.96875 -65.4375 C 20.375 -67.425781 27.597656 -68.421875 37.640625 -68.421875 C 47.679688 -68.421875 54.898438 -67.425781 59.296875 -65.4375 C 63.703125 -63.457031 66.5 -60.222656 67.6875 -55.734375 C 68.875 -51.242188 69.46875 -43.894531 69.46875 -33.6875 C 69.46875 -23.550781 68.875 -16.21875 67.6875 -11.6875 C 66.5 -7.15625 63.703125 -3.894531 59.296875 -1.90625 C 54.898438 0.0703125 47.679688 1.0625 37.640625 1.0625 Z M 37.640625 -15.453125 C 41.335938 -15.453125 43.867188 -15.828125 45.234375 -16.578125 C 46.597656 -17.328125 47.429688 -18.800781 47.734375 -21 C 48.046875 -23.195312 48.203125 -27.425781 48.203125 -33.6875 C 48.203125 -40.019531 48.046875 -44.285156 47.734375 -46.484375 C 47.429688 -48.691406 46.597656 -50.144531 45.234375 -50.84375 C 43.867188 -51.550781 41.335938 -51.90625 37.640625 -51.90625 C 33.941406 -51.90625 31.410156 -51.550781 30.046875 -50.84375 C 28.679688 -50.144531 27.84375 -48.691406 27.53125 -46.484375 C 27.226562 -44.285156 27.078125 -40.019531 27.078125 -33.6875 C 27.078125 -27.425781 27.226562 -23.195312 27.53125 -21 C 27.84375 -18.800781 28.679688 -17.328125 30.046875 -16.578125 C 31.410156 -15.828125 33.941406 -15.453125 37.640625 -15.453125 Z M 37.640625 -15.453125 "/></g></g></g></svg>