<svg xmlns="http://www.w3.org/2000/svg" xmlns:xlink="http://www.w3.org/1999/xlink" width="500" zoomAndPan="magnify" viewBox="0 0 375 374.999991" height="500" preserveAspectRatio="xMidYMid meet" version="1.0"><defs><clipPath id="37bfae8f6a"><path d="M 22.265625 211 L 58 211 L 58 262 L 22.265625 262 Z M 22.265625 211 " clip-rule="nonzero"/></clipPath><clipPath id="2480c40144"><path d="M 22.265625 324 L 58 324 L 58 375 L 22.265625 375 Z M 22.265625 324 " clip-rule="nonzero"/></clipPath></defs><path fill="#0f1729" d="M 52.035156 274.765625 L 52.035156 312.074219 C 52.035156 312.492188 52.078125 312.90625 52.160156 313.320312 C 52.242188 313.730469 52.363281 314.128906 52.523438 314.515625 C 52.6875 314.902344 52.882812 315.269531 53.117188 315.617188 C 53.347656 315.96875 53.613281 316.289062 53.910156 316.585938 C 54.207031 316.882812 54.527344 317.148438 54.878906 317.378906 C 55.226562 317.613281 55.59375 317.808594 55.980469 317.972656 C 56.367188 318.132812 56.765625 318.253906 57.175781 318.335938 C 57.589844 318.417969 58.003906 318.460938 58.421875 318.460938 L 86.976562 318.460938 L 86.976562 268.378906 L 58.421875 268.378906 C 58.003906 268.378906 57.589844 268.421875 57.175781 268.503906 C 56.765625 268.585938 56.367188 268.707031 55.980469 268.867188 C 55.59375 269.03125 55.226562 269.226562 54.878906 269.460938 C 54.527344 269.691406 54.207031 269.957031 53.910156 270.253906 C 53.613281 270.550781 53.347656 270.871094 53.117188 271.222656 C 52.882812 271.570312 52.6875 271.9375 52.523438 272.324219 C 52.363281 272.710938 52.242188 273.109375 52.160156 273.519531 C 52.078125 273.929688 52.035156 274.347656 52.035156 274.765625 Z M 52.035156 274.765625 " fill-opacity="1" fill-rule="nonzero"/><path fill="#0f1729" d="M 63.597656 324.851562 L 82.890625 324.851562 L 82.890625 374.9375 L 63.597656 374.9375 Z M 63.597656 324.851562 " fill-opacity="1" fill-rule="nonzero"/><path fill="#0f1729" d="M 63.597656 211.902344 L 82.890625 211.902344 L 82.890625 261.988281 L 63.597656 261.988281 Z M 63.597656 211.902344 " fill-opacity="1" fill-rule="nonzero"/><path fill="#0f1729" d="M 52.035156 161.820312 L 52.035156 199.125 C 52.035156 199.546875 52.078125 199.960938 52.160156 200.371094 C 52.242188 200.78125 52.363281 201.183594 52.523438 201.570312 C 52.6875 201.957031 52.882812 202.324219 53.117188 202.671875 C 53.347656 203.019531 53.613281 203.34375 53.910156 203.636719 C 54.207031 203.933594 54.527344 204.199219 54.878906 204.433594 C 55.226562 204.664062 55.59375 204.863281 55.980469 205.023438 C 56.367188 205.183594 56.765625 205.308594 57.175781 205.390625 C 57.589844 205.472656 58.003906 205.515625 58.421875 205.515625 L 86.976562 205.515625 L 86.976562 155.429688 L 58.421875 155.429688 C 58.003906 155.429688 57.589844 155.472656 57.175781 155.554688 C 56.765625 155.640625 56.367188 155.761719 55.980469 155.921875 C 55.59375 156.082031 55.226562 156.28125 54.878906 156.511719 C 54.527344 156.746094 54.207031 157.011719 53.910156 157.308594 C 53.613281 157.601562 53.347656 157.925781 53.117188 158.273438 C 52.882812 158.621094 52.6875 158.988281 52.523438 159.375 C 52.363281 159.765625 52.242188 160.164062 52.160156 160.574219 C 52.078125 160.984375 52.035156 161.398438 52.035156 161.820312 Z M 52.035156 161.820312 " fill-opacity="1" fill-rule="nonzero"/><path fill="#0f1729" d="M 238.640625 324.851562 L 257.933594 324.851562 L 257.933594 374.9375 L 238.640625 374.9375 Z M 238.640625 324.851562 " fill-opacity="1" fill-rule="nonzero"/><path fill="#0f1729" d="M 89.277344 324.851562 L 232.25 324.851562 L 232.25 374.9375 L 89.277344 374.9375 Z M 89.277344 324.851562 " fill-opacity="1" fill-rule="nonzero"/><path fill="#0f1729" d="M 93.367188 155.429688 L 112.660156 155.429688 L 112.660156 205.515625 L 93.367188 205.515625 Z M 93.367188 155.429688 " fill-opacity="1" fill-rule="nonzero"/><path fill="#0f1729" d="M 142.558594 170.507812 C 139.351562 165.726562 136.59375 160.703125 134.285156 155.429688 L 119.046875 155.429688 L 119.046875 205.515625 L 178.171875 205.515625 C 171.035156 201.046875 164.460938 195.859375 158.453125 189.957031 C 152.445312 184.050781 147.148438 177.570312 142.558594 170.507812 Z M 142.558594 170.507812 " fill-opacity="1" fill-rule="nonzero"/><path fill="#0f1729" d="M 232.25 222.699219 C 222.871094 222.171875 213.691406 220.523438 204.714844 217.75 C 199.597656 216.179688 194.625 214.230469 189.800781 211.902344 L 89.277344 211.902344 L 89.277344 261.988281 L 232.25 261.988281 Z M 232.25 222.699219 " fill-opacity="1" fill-rule="nonzero"/><g clip-path="url(#37bfae8f6a)"><path fill="#0f1729" d="M 57.207031 211.902344 L 28.652344 211.902344 C 28.234375 211.90625 27.816406 211.945312 27.40625 212.03125 C 26.996094 212.113281 26.597656 212.234375 26.210938 212.394531 C 25.824219 212.554688 25.457031 212.753906 25.105469 212.984375 C 24.757812 213.21875 24.4375 213.484375 24.140625 213.78125 C 23.84375 214.078125 23.578125 214.398438 23.347656 214.746094 C 23.113281 215.097656 22.914062 215.464844 22.753906 215.851562 C 22.59375 216.238281 22.472656 216.636719 22.390625 217.046875 C 22.308594 217.457031 22.265625 217.871094 22.261719 218.292969 L 22.261719 255.601562 C 22.265625 256.019531 22.308594 256.433594 22.390625 256.84375 C 22.472656 257.257812 22.59375 257.65625 22.753906 258.042969 C 22.914062 258.429688 23.113281 258.796875 23.347656 259.144531 C 23.578125 259.492188 23.84375 259.816406 24.140625 260.113281 C 24.4375 260.410156 24.757812 260.671875 25.105469 260.90625 C 25.457031 261.140625 25.824219 261.335938 26.210938 261.496094 C 26.597656 261.660156 26.996094 261.78125 27.40625 261.863281 C 27.816406 261.945312 28.234375 261.988281 28.652344 261.988281 L 57.207031 261.988281 Z M 57.207031 211.902344 " fill-opacity="1" fill-rule="nonzero"/></g><g clip-path="url(#2480c40144)"><path fill="#0f1729" d="M 22.261719 331.238281 L 22.261719 368.546875 C 22.265625 368.964844 22.308594 369.382812 22.390625 369.792969 C 22.472656 370.203125 22.59375 370.601562 22.753906 370.988281 C 22.914062 371.375 23.113281 371.742188 23.347656 372.09375 C 23.578125 372.441406 23.84375 372.761719 24.140625 373.058594 C 24.4375 373.355469 24.757812 373.621094 25.105469 373.855469 C 25.457031 374.085938 25.824219 374.285156 26.210938 374.445312 C 26.597656 374.605469 26.996094 374.726562 27.40625 374.808594 C 27.816406 374.894531 28.234375 374.933594 28.652344 374.9375 L 57.207031 374.9375 L 57.207031 324.851562 L 28.652344 324.851562 C 28.234375 324.851562 27.816406 324.894531 27.40625 324.976562 C 26.996094 325.058594 26.597656 325.179688 26.210938 325.34375 C 25.824219 325.503906 25.457031 325.699219 25.105469 325.933594 C 24.757812 326.167969 24.4375 326.429688 24.140625 326.726562 C 23.84375 327.023438 23.578125 327.347656 23.347656 327.695312 C 23.113281 328.042969 22.914062 328.410156 22.753906 328.796875 C 22.59375 329.183594 22.472656 329.582031 22.390625 329.996094 C 22.308594 330.40625 22.265625 330.820312 22.261719 331.238281 Z M 22.261719 331.238281 " fill-opacity="1" fill-rule="nonzero"/></g><path fill="#0f1729" d="M 93.367188 268.378906 L 112.660156 268.378906 L 112.660156 318.460938 L 93.367188 318.460938 Z M 93.367188 268.378906 " fill-opacity="1" fill-rule="nonzero"/><path fill="#0f1729" d="M 238.765625 222.890625 L 238.640625 222.890625 L 238.640625 261.988281 L 257.933594 261.988281 L 257.933594 221.292969 C 251.582031 222.292969 245.195312 222.824219 238.765625 222.890625 Z M 238.765625 222.890625 " fill-opacity="1" fill-rule="nonzero"/><path fill="#0f1729" d="M 238.765625 0.0625 C 236.519531 0.0625 234.269531 0.132812 232.027344 0.273438 C 229.78125 0.414062 227.542969 0.621094 225.3125 0.902344 C 223.078125 1.179688 220.859375 1.527344 218.648438 1.945312 C 216.4375 2.363281 214.242188 2.851562 212.0625 3.40625 C 209.882812 3.960938 207.722656 4.582031 205.582031 5.273438 C 203.441406 5.960938 201.324219 6.714844 199.230469 7.539062 C 197.136719 8.359375 195.070312 9.246094 193.03125 10.195312 C 190.992188 11.144531 188.984375 12.160156 187.007812 13.234375 C 185.035156 14.308594 183.09375 15.445312 181.1875 16.640625 C 179.285156 17.839844 177.417969 19.09375 175.59375 20.40625 C 173.765625 21.71875 171.984375 23.085938 170.242188 24.511719 C 168.5 25.9375 166.804688 27.414062 165.15625 28.941406 C 163.507812 30.472656 161.90625 32.050781 160.359375 33.679688 C 158.808594 35.3125 157.308594 36.988281 155.863281 38.710938 C 154.417969 40.433594 153.027344 42.199219 151.691406 44.007812 C 150.355469 45.820312 149.078125 47.667969 147.855469 49.558594 C 146.636719 51.445312 145.476562 53.371094 144.375 55.335938 C 143.277344 57.296875 142.238281 59.289062 141.261719 61.316406 C 140.285156 63.34375 139.375 65.398438 138.527344 67.480469 C 137.679688 69.566406 136.894531 71.671875 136.179688 73.804688 C 135.464844 75.9375 134.816406 78.089844 134.234375 80.261719 C 133.652344 82.433594 133.136719 84.625 132.691406 86.828125 C 132.246094 89.03125 131.871094 91.25 131.5625 93.476562 C 131.253906 95.707031 131.015625 97.941406 130.847656 100.183594 C 130.679688 102.425781 130.582031 104.671875 130.554688 106.921875 C 130.527344 109.171875 130.570312 111.417969 130.683594 113.664062 C 130.792969 115.914062 130.976562 118.152344 131.230469 120.386719 C 131.480469 122.625 131.800781 124.847656 132.191406 127.0625 C 132.585938 129.277344 133.042969 131.480469 133.570312 133.664062 C 134.101562 135.851562 134.695312 138.019531 135.359375 140.167969 C 136.023438 142.316406 136.75 144.445312 137.546875 146.546875 C 138.34375 148.652344 139.203125 150.730469 140.128906 152.777344 C 144.515625 162.40625 150.171875 171.222656 157.089844 179.226562 C 164.570312 187.667969 173.101562 194.863281 182.675781 200.820312 C 191.4375 206.078125 200.746094 210.070312 210.59375 212.796875 C 220.023438 215.234375 229.605469 216.46875 239.34375 216.503906 C 244.679688 216.484375 249.988281 216.070312 255.265625 215.261719 C 260.542969 214.449219 265.734375 213.253906 270.832031 211.671875 C 275.929688 210.085938 280.882812 208.132812 285.691406 205.8125 C 290.5 203.492188 295.109375 200.824219 299.519531 197.816406 C 305.566406 193.582031 311.15625 188.816406 316.296875 183.519531 C 321.4375 178.222656 326.035156 172.488281 330.089844 166.324219 C 330.089844 166.289062 330.121094 166.289062 330.121094 166.257812 C 331.414062 164.226562 332.636719 162.152344 333.789062 160.035156 C 334.941406 157.917969 336.023438 155.769531 337.03125 153.582031 C 338.042969 151.394531 338.976562 149.175781 339.839844 146.925781 C 340.699219 144.675781 341.484375 142.398438 342.195312 140.097656 C 342.902344 137.792969 343.535156 135.46875 344.089844 133.125 C 344.640625 130.78125 345.117188 128.421875 345.511719 126.042969 C 345.910156 123.667969 346.226562 121.28125 346.464844 118.882812 C 346.699219 116.484375 346.855469 114.082031 346.933594 111.675781 C 347.007812 109.265625 347.003906 106.859375 346.917969 104.453125 C 346.835938 102.042969 346.671875 99.640625 346.425781 97.246094 C 346.179688 94.847656 345.855469 92.460938 345.449219 90.085938 C 345.046875 87.710938 344.5625 85.351562 344 83.011719 C 343.4375 80.667969 342.800781 78.347656 342.082031 76.046875 C 341.363281 73.746094 340.570312 71.472656 339.703125 69.226562 C 338.832031 66.980469 337.890625 64.765625 336.875 62.578125 C 335.855469 60.394531 334.769531 58.25 333.605469 56.136719 C 332.445312 54.027344 331.21875 51.957031 329.917969 49.925781 C 328.621094 47.898438 327.253906 45.914062 325.824219 43.976562 C 324.390625 42.039062 322.898438 40.148438 321.339844 38.3125 C 319.78125 36.472656 318.164062 34.691406 316.488281 32.960938 C 314.8125 31.230469 313.078125 29.558594 311.292969 27.945312 C 309.503906 26.328125 307.664062 24.777344 305.769531 23.285156 C 303.878906 21.792969 301.9375 20.367188 299.953125 19.003906 C 297.964844 17.644531 295.933594 16.347656 293.859375 15.125 C 291.785156 13.898438 289.671875 12.742188 287.523438 11.65625 C 285.371094 10.570312 283.1875 9.558594 280.96875 8.621094 C 278.75 7.679688 276.5 6.816406 274.226562 6.027344 C 271.949219 5.238281 269.648438 4.527344 267.324219 3.890625 C 265 3.257812 262.660156 2.699219 260.296875 2.222656 C 257.9375 1.742188 255.5625 1.34375 253.175781 1.023438 C 250.785156 0.703125 248.390625 0.464844 245.988281 0.304688 C 243.582031 0.144531 241.175781 0.0625 238.765625 0.0625 Z M 238.765625 200.53125 C 237.257812 200.53125 235.75 200.496094 234.242188 200.421875 C 232.734375 200.347656 231.226562 200.234375 229.726562 200.089844 C 228.222656 199.941406 226.726562 199.753906 225.230469 199.535156 C 223.738281 199.3125 222.25 199.054688 220.769531 198.761719 C 219.289062 198.464844 217.816406 198.132812 216.351562 197.769531 C 214.886719 197.402344 213.433594 197 211.988281 196.558594 C 210.542969 196.121094 209.109375 195.648438 207.6875 195.140625 C 206.269531 194.632812 204.859375 194.089844 203.464844 193.511719 C 202.070312 192.933594 200.691406 192.320312 199.324219 191.675781 C 197.960938 191.03125 196.613281 190.351562 195.28125 189.640625 C 193.949219 188.929688 192.636719 188.183594 191.339844 187.40625 C 190.046875 186.632812 188.773438 185.824219 187.515625 184.984375 C 186.261719 184.148438 185.027344 183.277344 183.816406 182.378906 C 182.601562 181.480469 181.410156 180.550781 180.246094 179.59375 C 179.078125 178.636719 177.933594 177.648438 176.816406 176.636719 C 175.699219 175.621094 174.605469 174.582031 173.539062 173.511719 C 172.46875 172.445312 171.429688 171.351562 170.414062 170.234375 C 169.402344 169.117188 168.414062 167.972656 167.457031 166.804688 C 166.5 165.636719 165.570312 164.449219 164.671875 163.234375 C 163.773438 162.023438 162.902344 160.789062 162.066406 159.535156 C 161.226562 158.277344 160.417969 157.003906 159.644531 155.707031 C 158.867188 154.414062 158.121094 153.101562 157.410156 151.769531 C 156.699219 150.4375 156.019531 149.089844 155.375 147.726562 C 154.730469 146.359375 154.117188 144.980469 153.539062 143.585938 C 152.960938 142.191406 152.417969 140.78125 151.910156 139.359375 C 151.402344 137.941406 150.929688 136.507812 150.492188 135.0625 C 150.050781 133.617188 149.648438 132.164062 149.28125 130.699219 C 148.917969 129.234375 148.585938 127.761719 148.289062 126.28125 C 147.996094 124.800781 147.738281 123.3125 147.515625 121.820312 C 147.296875 120.324219 147.109375 118.828125 146.960938 117.324219 C 146.816406 115.824219 146.703125 114.316406 146.628906 112.808594 C 146.554688 111.300781 146.519531 109.792969 146.519531 108.285156 C 146.519531 106.773438 146.554688 105.265625 146.628906 103.757812 C 146.703125 102.25 146.816406 100.742188 146.960938 99.242188 C 147.109375 97.738281 147.296875 96.242188 147.515625 94.746094 C 147.738281 93.253906 147.996094 91.765625 148.289062 90.285156 C 148.585938 88.804688 148.917969 87.332031 149.28125 85.867188 C 149.648438 84.40625 150.050781 82.949219 150.492188 81.503906 C 150.929688 80.058594 151.402344 78.628906 151.910156 77.207031 C 152.417969 75.785156 152.960938 74.375 153.539062 72.980469 C 154.117188 71.585938 154.730469 70.207031 155.375 68.84375 C 156.019531 67.476562 156.699219 66.128906 157.410156 64.796875 C 158.121094 63.464844 158.867188 62.152344 159.644531 60.859375 C 160.417969 59.5625 161.226562 58.289062 162.066406 57.03125 C 162.902344 55.777344 163.773438 54.542969 164.671875 53.332031 C 165.570312 52.117188 166.5 50.929688 167.457031 49.761719 C 168.414062 48.59375 169.402344 47.453125 170.414062 46.332031 C 171.429688 45.214844 172.46875 44.121094 173.539062 43.054688 C 174.605469 41.988281 175.699219 40.945312 176.816406 39.933594 C 177.933594 38.917969 179.078125 37.933594 180.246094 36.972656 C 181.410156 36.015625 182.601562 35.089844 183.816406 34.1875 C 185.027344 33.289062 186.261719 32.421875 187.515625 31.582031 C 188.773438 30.742188 190.046875 29.933594 191.339844 29.160156 C 192.636719 28.382812 193.949219 27.640625 195.28125 26.925781 C 196.613281 26.214844 197.960938 25.539062 199.324219 24.890625 C 200.691406 24.246094 202.070312 23.632812 203.464844 23.058594 C 204.859375 22.480469 206.269531 21.9375 207.6875 21.425781 C 209.109375 20.917969 210.542969 20.445312 211.988281 20.007812 C 213.433594 19.570312 214.886719 19.167969 216.351562 18.800781 C 217.816406 18.433594 219.289062 18.101562 220.769531 17.808594 C 222.25 17.511719 223.738281 17.253906 225.230469 17.035156 C 226.726562 16.8125 228.222656 16.628906 229.726562 16.480469 C 231.226562 16.332031 232.734375 16.21875 234.242188 16.144531 C 235.75 16.070312 237.257812 16.035156 238.765625 16.035156 C 240.277344 16.035156 241.785156 16.070312 243.292969 16.144531 C 244.800781 16.21875 246.304688 16.332031 247.808594 16.480469 C 249.3125 16.628906 250.808594 16.8125 252.300781 17.035156 C 253.796875 17.253906 255.28125 17.511719 256.765625 17.808594 C 258.246094 18.101562 259.71875 18.433594 261.179688 18.800781 C 262.644531 19.167969 264.101562 19.570312 265.546875 20.007812 C 266.988281 20.445312 268.421875 20.917969 269.84375 21.425781 C 271.265625 21.9375 272.675781 22.480469 274.070312 23.058594 C 275.464844 23.632812 276.84375 24.246094 278.207031 24.890625 C 279.574219 25.539062 280.921875 26.214844 282.253906 26.925781 C 283.585938 27.640625 284.898438 28.382812 286.191406 29.160156 C 287.488281 29.933594 288.761719 30.742188 290.019531 31.582031 C 291.273438 32.421875 292.507812 33.289062 293.71875 34.1875 C 294.933594 35.089844 296.121094 36.015625 297.289062 36.972656 C 298.457031 37.933594 299.597656 38.917969 300.71875 39.933594 C 301.835938 40.945312 302.929688 41.988281 303.996094 43.054688 C 305.0625 44.121094 306.105469 45.214844 307.117188 46.332031 C 308.132812 47.453125 309.117188 48.59375 310.078125 49.761719 C 311.035156 50.929688 311.960938 52.117188 312.863281 53.332031 C 313.761719 54.542969 314.628906 55.777344 315.46875 57.03125 C 316.308594 58.289062 317.113281 59.5625 317.890625 60.859375 C 318.667969 62.152344 319.410156 63.464844 320.125 64.796875 C 320.835938 66.128906 321.511719 67.476562 322.160156 68.84375 C 322.804688 70.207031 323.414062 71.585938 323.992188 72.980469 C 324.570312 74.375 325.113281 75.785156 325.625 77.207031 C 326.132812 78.628906 326.605469 80.058594 327.042969 81.503906 C 327.480469 82.949219 327.882812 84.40625 328.25 85.867188 C 328.617188 87.332031 328.949219 88.804688 329.242188 90.285156 C 329.539062 91.765625 329.796875 93.253906 330.015625 94.746094 C 330.238281 96.242188 330.421875 97.738281 330.570312 99.242188 C 330.71875 100.742188 330.832031 102.25 330.90625 103.757812 C 330.980469 105.265625 331.015625 106.773438 331.015625 108.285156 C 331.015625 109.792969 330.976562 111.300781 330.898438 112.808594 C 330.824219 114.316406 330.710938 115.820312 330.558594 117.320312 C 330.410156 118.824219 330.222656 120.320312 330 121.8125 C 329.777344 123.304688 329.519531 124.792969 329.222656 126.273438 C 328.925781 127.753906 328.59375 129.222656 328.226562 130.6875 C 327.859375 132.152344 327.457031 133.605469 327.015625 135.046875 C 326.578125 136.492188 326.101562 137.925781 325.59375 139.34375 C 325.082031 140.765625 324.539062 142.171875 323.960938 143.566406 C 323.382812 144.960938 322.769531 146.339844 322.125 147.703125 C 321.480469 149.066406 320.800781 150.414062 320.085938 151.746094 C 319.375 153.074219 318.632812 154.386719 317.855469 155.683594 C 317.078125 156.976562 316.269531 158.25 315.433594 159.503906 C 314.59375 160.761719 313.722656 161.992188 312.824219 163.207031 C 311.925781 164.417969 310.996094 165.605469 310.039062 166.773438 C 309.082031 167.941406 308.097656 169.082031 307.082031 170.199219 C 306.070312 171.316406 305.027344 172.410156 303.960938 173.476562 C 302.894531 174.546875 301.800781 175.585938 300.683594 176.597656 C 299.566406 177.613281 298.421875 178.597656 297.257812 179.554688 C 296.089844 180.511719 294.902344 181.441406 293.6875 182.339844 C 292.476562 183.242188 291.242188 184.109375 289.988281 184.949219 C 288.734375 185.789062 287.460938 186.59375 286.164062 187.371094 C 284.871094 188.148438 283.558594 188.890625 282.230469 189.605469 C 280.898438 190.316406 279.550781 190.996094 278.1875 191.640625 C 276.824219 192.289062 275.445312 192.898438 274.050781 193.476562 C 272.65625 194.054688 271.25 194.601562 269.828125 195.109375 C 268.40625 195.621094 266.976562 196.09375 265.53125 196.53125 C 264.089844 196.972656 262.632812 197.375 261.171875 197.742188 C 259.707031 198.113281 258.234375 198.445312 256.753906 198.738281 C 255.277344 199.035156 253.789062 199.296875 252.296875 199.519531 C 250.804688 199.742188 249.308594 199.925781 247.804688 200.078125 C 246.304688 200.226562 244.800781 200.339844 243.292969 200.414062 C 241.785156 200.492188 240.277344 200.53125 238.765625 200.53125 Z M 238.765625 200.53125 " fill-opacity="1" fill-rule="nonzero"/><path fill="#0f1729" d="M 313.734375 194.910156 C 309.214844 198.769531 304.457031 202.300781 299.457031 205.515625 L 322.648438 205.515625 C 323.066406 205.515625 323.480469 205.472656 323.890625 205.390625 C 324.304688 205.308594 324.703125 205.183594 325.089844 205.023438 C 325.476562 204.863281 325.84375 204.664062 326.191406 204.433594 C 326.539062 204.199219 326.863281 203.933594 327.160156 203.636719 C 327.453125 203.34375 327.71875 203.019531 327.953125 202.671875 C 328.1875 202.324219 328.382812 201.957031 328.542969 201.570312 C 328.703125 201.183594 328.828125 200.78125 328.910156 200.371094 C 328.992188 199.960938 329.035156 199.546875 329.035156 199.125 L 329.035156 178.875 C 324.390625 184.65625 319.289062 190 313.734375 194.910156 Z M 313.734375 194.910156 " fill-opacity="1" fill-rule="nonzero"/><path fill="#0f1729" d="M 238.765625 22.421875 C 237.363281 22.421875 235.957031 22.457031 234.554688 22.527344 C 233.152344 22.597656 231.75 22.699219 230.351562 22.835938 C 228.953125 22.972656 227.558594 23.144531 226.167969 23.351562 C 224.777344 23.558594 223.394531 23.800781 222.015625 24.074219 C 220.636719 24.347656 219.269531 24.65625 217.90625 24.996094 C 216.542969 25.335938 215.1875 25.710938 213.84375 26.121094 C 212.5 26.527344 211.164062 26.96875 209.839844 27.441406 C 208.519531 27.914062 207.207031 28.421875 205.910156 28.960938 C 204.613281 29.496094 203.328125 30.066406 202.058594 30.667969 C 200.785156 31.269531 199.53125 31.898438 198.292969 32.5625 C 197.054688 33.222656 195.832031 33.917969 194.625 34.640625 C 193.421875 35.359375 192.234375 36.113281 191.066406 36.894531 C 189.898438 37.675781 188.75 38.484375 187.621094 39.320312 C 186.492188 40.15625 185.382812 41.019531 184.296875 41.914062 C 183.210938 42.804688 182.148438 43.722656 181.105469 44.664062 C 180.066406 45.609375 179.046875 46.578125 178.054688 47.570312 C 177.0625 48.566406 176.09375 49.582031 175.148438 50.625 C 174.203125 51.664062 173.289062 52.726562 172.394531 53.8125 C 171.503906 54.902344 170.640625 56.007812 169.804688 57.136719 C 168.964844 58.265625 168.15625 59.414062 167.375 60.582031 C 166.597656 61.75 165.84375 62.9375 165.121094 64.144531 C 164.398438 65.347656 163.707031 66.570312 163.046875 67.808594 C 162.382812 69.046875 161.75 70.304688 161.148438 71.574219 C 160.550781 72.84375 159.980469 74.128906 159.441406 75.425781 C 158.90625 76.722656 158.398438 78.035156 157.925781 79.359375 C 157.453125 80.679688 157.011719 82.015625 156.605469 83.359375 C 156.195312 84.703125 155.820312 86.058594 155.480469 87.421875 C 155.136719 88.785156 154.832031 90.15625 154.554688 91.53125 C 154.28125 92.910156 154.042969 94.296875 153.835938 95.683594 C 153.628906 97.074219 153.457031 98.46875 153.320312 99.867188 C 153.183594 101.265625 153.078125 102.667969 153.011719 104.070312 C 152.941406 105.472656 152.90625 106.878906 152.90625 108.285156 C 152.90625 109.6875 152.941406 111.09375 153.011719 112.496094 C 153.078125 113.898438 153.183594 115.300781 153.320312 116.699219 C 153.457031 118.097656 153.628906 119.492188 153.835938 120.882812 C 154.042969 122.273438 154.28125 123.65625 154.554688 125.035156 C 154.832031 126.414062 155.136719 127.78125 155.480469 129.144531 C 155.820312 130.507812 156.195312 131.863281 156.605469 133.207031 C 157.011719 134.550781 157.453125 135.886719 157.925781 137.210938 C 158.398438 138.53125 158.90625 139.84375 159.441406 141.140625 C 159.980469 142.4375 160.550781 143.722656 161.148438 144.992188 C 161.75 146.265625 162.382812 147.519531 163.046875 148.757812 C 163.707031 149.996094 164.398438 151.21875 165.121094 152.425781 C 165.84375 153.628906 166.597656 154.816406 167.375 155.984375 C 168.15625 157.152344 168.964844 158.300781 169.804688 159.429688 C 170.640625 160.558594 171.503906 161.667969 172.394531 162.753906 C 173.289062 163.839844 174.203125 164.902344 175.148438 165.945312 C 176.09375 166.984375 177.0625 168.003906 178.054688 168.996094 C 179.046875 169.988281 180.066406 170.957031 181.105469 171.902344 C 182.148438 172.84375 183.210938 173.761719 184.296875 174.65625 C 185.382812 175.546875 186.492188 176.410156 187.621094 177.246094 C 188.75 178.085938 189.898438 178.894531 191.066406 179.675781 C 192.234375 180.453125 193.421875 181.207031 194.625 181.929688 C 195.832031 182.652344 197.054688 183.34375 198.292969 184.003906 C 199.53125 184.667969 200.785156 185.300781 202.058594 185.902344 C 203.328125 186.5 204.613281 187.070312 205.910156 187.609375 C 207.207031 188.144531 208.519531 188.652344 209.839844 189.125 C 211.164062 189.597656 212.5 190.039062 213.84375 190.445312 C 215.1875 190.855469 216.542969 191.230469 217.90625 191.570312 C 219.269531 191.914062 220.636719 192.21875 222.015625 192.492188 C 223.394531 192.769531 224.777344 193.007812 226.167969 193.214844 C 227.558594 193.421875 228.953125 193.59375 230.351562 193.730469 C 231.75 193.867188 233.152344 193.972656 234.554688 194.039062 C 235.957031 194.109375 237.363281 194.144531 238.765625 194.144531 C 240.171875 194.144531 241.578125 194.109375 242.980469 194.039062 C 244.382812 193.972656 245.785156 193.867188 247.183594 193.730469 C 248.582031 193.59375 249.976562 193.421875 251.367188 193.214844 C 252.753906 193.007812 254.140625 192.769531 255.515625 192.492188 C 256.894531 192.21875 258.265625 191.914062 259.628906 191.570312 C 260.992188 191.230469 262.347656 190.855469 263.691406 190.445312 C 265.035156 190.039062 266.371094 189.597656 267.691406 189.125 C 269.015625 188.652344 270.324219 188.144531 271.625 187.609375 C 272.921875 187.070312 274.207031 186.5 275.476562 185.902344 C 276.746094 185.300781 278.003906 184.667969 279.242188 184.003906 C 280.480469 183.34375 281.703125 182.652344 282.90625 181.929688 C 284.113281 181.207031 285.300781 180.453125 286.46875 179.675781 C 287.636719 178.894531 288.785156 178.085938 289.914062 177.246094 C 291.042969 176.410156 292.148438 175.546875 293.234375 174.65625 C 294.324219 173.761719 295.386719 172.84375 296.425781 171.902344 C 297.46875 170.957031 298.484375 169.988281 299.480469 168.996094 C 300.472656 168.003906 301.441406 166.984375 302.386719 165.945312 C 303.328125 164.902344 304.246094 163.839844 305.136719 162.753906 C 306.03125 161.667969 306.894531 160.558594 307.730469 159.429688 C 308.566406 158.300781 309.375 157.152344 310.15625 155.984375 C 310.9375 154.816406 311.6875 153.628906 312.410156 152.425781 C 313.132812 151.21875 313.828125 149.996094 314.488281 148.757812 C 315.152344 147.519531 315.78125 146.265625 316.382812 144.992188 C 316.984375 143.722656 317.554688 142.4375 318.089844 141.140625 C 318.628906 139.84375 319.136719 138.53125 319.609375 137.210938 C 320.082031 135.886719 320.523438 134.550781 320.929688 133.207031 C 321.339844 131.863281 321.710938 130.507812 322.054688 129.144531 C 322.394531 127.78125 322.703125 126.414062 322.976562 125.035156 C 323.25 123.65625 323.492188 122.273438 323.699219 120.882812 C 323.902344 119.492188 324.074219 118.097656 324.214844 116.699219 C 324.351562 115.300781 324.453125 113.898438 324.523438 112.496094 C 324.59375 111.09375 324.628906 109.6875 324.628906 108.285156 C 324.625 106.878906 324.589844 105.476562 324.519531 104.070312 C 324.449219 102.667969 324.34375 101.269531 324.203125 99.871094 C 324.066406 98.472656 323.890625 97.078125 323.683594 95.691406 C 323.476562 94.300781 323.234375 92.917969 322.960938 91.539062 C 322.683594 90.164062 322.375 88.792969 322.035156 87.429688 C 321.691406 86.070312 321.316406 84.714844 320.90625 83.371094 C 320.496094 82.027344 320.054688 80.695312 319.582031 79.371094 C 319.109375 78.050781 318.601562 76.738281 318.0625 75.441406 C 317.523438 74.144531 316.957031 72.863281 316.355469 71.59375 C 315.753906 70.324219 315.121094 69.070312 314.457031 67.832031 C 313.796875 66.589844 313.101562 65.371094 312.378906 64.164062 C 311.65625 62.960938 310.90625 61.773438 310.125 60.605469 C 309.34375 59.4375 308.535156 58.292969 307.699219 57.164062 C 306.859375 56.035156 305.996094 54.929688 305.105469 53.84375 C 304.214844 52.757812 303.296875 51.695312 302.355469 50.652344 C 301.410156 49.613281 300.441406 48.59375 299.449219 47.601562 C 298.457031 46.609375 297.4375 45.640625 296.398438 44.695312 C 295.355469 43.753906 294.292969 42.835938 293.207031 41.945312 C 292.121094 41.054688 291.015625 40.191406 289.886719 39.351562 C 288.757812 38.515625 287.609375 37.707031 286.445312 36.925781 C 285.277344 36.144531 284.089844 35.394531 282.886719 34.671875 C 281.679688 33.949219 280.457031 33.253906 279.21875 32.59375 C 277.980469 31.929688 276.726562 31.296875 275.457031 30.695312 C 274.1875 30.09375 272.90625 29.527344 271.609375 28.988281 C 270.308594 28.449219 269 27.941406 267.679688 27.46875 C 266.355469 26.996094 265.023438 26.554688 263.679688 26.144531 C 262.335938 25.734375 260.980469 25.359375 259.621094 25.015625 C 258.257812 24.675781 256.886719 24.367188 255.511719 24.089844 C 254.132812 23.816406 252.75 23.574219 251.359375 23.367188 C 249.972656 23.160156 248.578125 22.984375 247.179688 22.847656 C 245.78125 22.707031 244.382812 22.601562 242.976562 22.53125 C 241.574219 22.460938 240.171875 22.425781 238.765625 22.421875 Z M 241.386719 115.761719 C 239.851562 116.285156 238.296875 116.347656 236.722656 115.949219 L 212.414062 146.167969 C 212.148438 146.5 211.828125 146.765625 211.457031 146.96875 C 211.082031 147.171875 210.683594 147.296875 210.261719 147.34375 C 209.839844 147.386719 209.421875 147.351562 209.015625 147.230469 C 208.609375 147.109375 208.238281 146.917969 207.90625 146.648438 C 207.578125 146.382812 207.308594 146.0625 207.105469 145.6875 C 206.902344 145.316406 206.78125 144.917969 206.734375 144.496094 C 206.691406 144.070312 206.726562 143.65625 206.847656 143.25 C 206.96875 142.839844 207.164062 142.472656 207.433594 142.140625 L 231.738281 111.925781 C 231.140625 110.785156 230.84375 109.570312 230.84375 108.285156 C 230.84375 107.515625 230.953125 106.761719 231.171875 106.023438 C 231.386719 105.289062 231.707031 104.597656 232.128906 103.953125 C 232.546875 103.308594 233.050781 102.738281 233.636719 102.242188 C 234.222656 101.742188 234.867188 101.339844 235.574219 101.03125 L 235.574219 37.4375 C 235.574219 37.011719 235.652344 36.605469 235.816406 36.214844 C 235.976562 35.824219 236.207031 35.476562 236.507812 35.175781 C 236.808594 34.878906 237.152344 34.648438 237.542969 34.484375 C 237.9375 34.324219 238.34375 34.242188 238.765625 34.242188 C 239.191406 34.242188 239.597656 34.324219 239.988281 34.484375 C 240.378906 34.648438 240.726562 34.878906 241.027344 35.175781 C 241.324219 35.476562 241.554688 35.824219 241.71875 36.214844 C 241.878906 36.605469 241.960938 37.011719 241.960938 37.4375 L 241.960938 101.03125 C 242.664062 101.339844 243.3125 101.742188 243.898438 102.242188 C 244.484375 102.738281 244.988281 103.308594 245.40625 103.953125 C 245.828125 104.597656 246.144531 105.289062 246.363281 106.023438 C 246.582031 106.761719 246.691406 107.515625 246.6875 108.285156 C 246.683594 109.105469 246.554688 109.902344 246.304688 110.683594 C 246.054688 111.464844 245.691406 112.191406 245.21875 112.859375 C 244.742188 113.527344 244.179688 114.109375 243.523438 114.605469 C 242.871094 115.101562 242.160156 115.484375 241.386719 115.761719 Z M 241.386719 115.761719 " fill-opacity="1" fill-rule="nonzero"/><path fill="#0f1729" d="M 119.046875 268.378906 L 262.054688 268.378906 L 262.054688 318.460938 L 119.046875 318.460938 Z M 119.046875 268.378906 " fill-opacity="1" fill-rule="nonzero"/><path fill="#0f1729" d="M 299.265625 255.601562 L 299.265625 218.292969 C 299.265625 217.871094 299.222656 217.457031 299.140625 217.046875 C 299.058594 216.636719 298.933594 216.238281 298.773438 215.851562 C 298.613281 215.464844 298.414062 215.097656 298.183594 214.746094 C 297.949219 214.398438 297.683594 214.078125 297.386719 213.78125 C 297.09375 213.484375 296.769531 213.21875 296.421875 212.984375 C 296.074219 212.753906 295.707031 212.554688 295.320312 212.394531 C 294.933594 212.234375 294.53125 212.113281 294.121094 212.03125 C 293.710938 211.945312 293.296875 211.90625 292.875 211.902344 L 287.734375 211.902344 C 280.230469 215.480469 272.429688 218.1875 264.320312 220.015625 L 264.320312 261.988281 L 292.875 261.988281 C 293.296875 261.988281 293.710938 261.945312 294.121094 261.863281 C 294.53125 261.78125 294.933594 261.660156 295.320312 261.496094 C 295.707031 261.335938 296.074219 261.140625 296.421875 260.90625 C 296.769531 260.671875 297.09375 260.410156 297.386719 260.113281 C 297.683594 259.816406 297.949219 259.492188 298.183594 259.144531 C 298.414062 258.796875 298.613281 258.429688 298.773438 258.042969 C 298.933594 257.65625 299.058594 257.257812 299.140625 256.84375 C 299.222656 256.433594 299.265625 256.019531 299.265625 255.601562 Z M 299.265625 255.601562 " fill-opacity="1" fill-rule="nonzero"/><path fill="#0f1729" d="M 294.089844 318.460938 L 322.648438 318.460938 C 323.066406 318.460938 323.480469 318.417969 323.890625 318.335938 C 324.304688 318.253906 324.703125 318.132812 325.089844 317.972656 C 325.476562 317.808594 325.84375 317.613281 326.191406 317.378906 C 326.539062 317.148438 326.863281 316.882812 327.160156 316.585938 C 327.453125 316.289062 327.71875 315.96875 327.953125 315.617188 C 328.1875 315.269531 328.382812 314.902344 328.542969 314.515625 C 328.703125 314.128906 328.828125 313.730469 328.910156 313.320312 C 328.992188 312.90625 329.035156 312.492188 329.035156 312.074219 L 329.035156 274.765625 C 329.035156 274.347656 328.992188 273.929688 328.910156 273.519531 C 328.828125 273.109375 328.703125 272.710938 328.542969 272.324219 C 328.382812 271.9375 328.1875 271.570312 327.953125 271.222656 C 327.71875 270.871094 327.453125 270.550781 327.160156 270.253906 C 326.863281 269.957031 326.539062 269.691406 326.191406 269.460938 C 325.84375 269.226562 325.476562 269.03125 325.089844 268.867188 C 324.703125 268.707031 324.304688 268.585938 323.890625 268.503906 C 323.480469 268.421875 323.066406 268.378906 322.648438 268.378906 L 294.089844 268.378906 Z M 294.089844 318.460938 " fill-opacity="1" fill-rule="nonzero"/><path fill="#0f1729" d="M 292.875 324.851562 L 264.320312 324.851562 L 264.320312 374.9375 L 292.875 374.9375 C 293.296875 374.933594 293.710938 374.894531 294.121094 374.808594 C 294.53125 374.726562 294.933594 374.605469 295.320312 374.445312 C 295.707031 374.285156 296.074219 374.085938 296.421875 373.855469 C 296.769531 373.621094 297.09375 373.355469 297.386719 373.058594 C 297.683594 372.761719 297.949219 372.441406 298.183594 372.09375 C 298.414062 371.742188 298.613281 371.375 298.773438 370.988281 C 298.933594 370.601562 299.058594 370.203125 299.140625 369.792969 C 299.222656 369.382812 299.265625 368.964844 299.265625 368.546875 L 299.265625 331.238281 C 299.265625 330.820312 299.222656 330.40625 299.140625 329.996094 C 299.058594 329.582031 298.933594 329.183594 298.773438 328.796875 C 298.613281 328.410156 298.414062 328.042969 298.183594 327.695312 C 297.949219 327.347656 297.683594 327.023438 297.386719 326.726562 C 297.09375 326.429688 296.769531 326.167969 296.421875 325.933594 C 296.074219 325.699219 295.707031 325.503906 295.320312 325.34375 C 294.933594 325.179688 294.53125 325.058594 294.121094 324.976562 C 293.710938 324.894531 293.296875 324.851562 292.875 324.851562 Z M 292.875 324.851562 " fill-opacity="1" fill-rule="nonzero"/><path fill="#0f1729" d="M 268.441406 268.378906 L 287.703125 268.378906 L 287.703125 318.460938 L 268.441406 318.460938 Z M 268.441406 268.378906 " fill-opacity="1" fill-rule="nonzero"/></svg>