<svg xmlns="http://www.w3.org/2000/svg" xmlns:xlink="http://www.w3.org/1999/xlink" width="500" zoomAndPan="magnify" viewBox="0 0 375 374.999991" height="500" preserveAspectRatio="xMidYMid meet" version="1.0"><defs><clipPath id="1e3743eccd"><path d="M 4.773438 0 L 370.023438 0 L 370.023438 375 L 4.773438 375 Z M 4.773438 0 " clip-rule="nonzero"/></clipPath></defs><g clip-path="url(#1e3743eccd)"><path fill="#141414" d="M 149.558594 0.53125 C 69.6875 0.53125 4.773438 65.429688 4.773438 145.300781 C 4.773438 225.171875 69.675781 290.074219 149.558594 290.074219 C 181.160156 290.074219 210.363281 279.898438 234.183594 262.660156 L 346.226562 374.433594 L 370.175781 350.488281 L 259.457031 239.503906 C 281.222656 214.160156 294.328125 181.253906 294.328125 145.289062 C 294.328125 65.421875 229.425781 0.519531 149.558594 0.519531 Z M 149.558594 17.558594 C 220.214844 17.558594 277.300781 74.644531 277.300781 145.300781 C 277.300781 215.960938 220.214844 273.046875 149.558594 273.046875 C 78.898438 273.046875 21.8125 215.960938 21.8125 145.300781 C 21.8125 74.644531 78.898438 17.558594 149.558594 17.558594 Z M 149.558594 17.558594 " fill-opacity="1" fill-rule="nonzero"/></g></svg>