<svg xmlns="http://www.w3.org/2000/svg" xmlns:xlink="http://www.w3.org/1999/xlink" width="500" zoomAndPan="magnify" viewBox="0 0 375 374.999991" height="500" preserveAspectRatio="xMidYMid meet" version="1.0"><defs><clipPath id="2b13496f02"><path d="M 108 18.75 L 267 18.75 L 267 177 L 108 177 Z M 108 18.75 " clip-rule="nonzero"/></clipPath><clipPath id="39430ab8bb"><path d="M 52.5 199 L 322.5 199 L 322.5 356.25 L 52.5 356.25 Z M 52.5 199 " clip-rule="nonzero"/></clipPath></defs><g clip-path="url(#2b13496f02)"><path fill="#141414" d="M 266.25 97.5 C 266.25 98.789062 266.21875 100.078125 266.15625 101.363281 C 266.09375 102.652344 265.996094 103.9375 265.871094 105.21875 C 265.746094 106.5 265.585938 107.78125 265.398438 109.054688 C 265.207031 110.328125 264.988281 111.597656 264.738281 112.863281 C 264.484375 114.128906 264.203125 115.382812 263.890625 116.632812 C 263.578125 117.886719 263.234375 119.125 262.859375 120.359375 C 262.484375 121.59375 262.082031 122.816406 261.648438 124.03125 C 261.210938 125.242188 260.75 126.445312 260.253906 127.636719 C 259.761719 128.828125 259.238281 130.003906 258.6875 131.171875 C 258.136719 132.335938 257.558594 133.484375 256.953125 134.621094 C 256.34375 135.757812 255.707031 136.878906 255.046875 137.984375 C 254.382812 139.089844 253.695312 140.179688 252.976562 141.25 C 252.261719 142.324219 251.519531 143.375 250.753906 144.410156 C 249.984375 145.445312 249.191406 146.460938 248.375 147.457031 C 247.558594 148.453125 246.714844 149.429688 245.851562 150.386719 C 244.984375 151.339844 244.097656 152.273438 243.183594 153.183594 C 242.273438 154.097656 241.339844 154.984375 240.386719 155.851562 C 239.429688 156.714844 238.453125 157.558594 237.457031 158.375 C 236.460938 159.191406 235.445312 159.984375 234.410156 160.753906 C 233.375 161.519531 232.324219 162.261719 231.25 162.976562 C 230.179688 163.695312 229.089844 164.382812 227.984375 165.046875 C 226.878906 165.707031 225.757812 166.34375 224.621094 166.953125 C 223.484375 167.558594 222.335938 168.136719 221.171875 168.6875 C 220.003906 169.238281 218.828125 169.761719 217.636719 170.253906 C 216.445312 170.75 215.242188 171.210938 214.03125 171.648438 C 212.816406 172.082031 211.59375 172.484375 210.359375 172.859375 C 209.125 173.234375 207.886719 173.578125 206.632812 173.890625 C 205.382812 174.203125 204.128906 174.484375 202.863281 174.738281 C 201.597656 174.988281 200.328125 175.207031 199.054688 175.398438 C 197.78125 175.585938 196.5 175.746094 195.21875 175.871094 C 193.9375 175.996094 192.652344 176.09375 191.363281 176.15625 C 190.078125 176.21875 188.789062 176.25 187.5 176.25 C 186.210938 176.25 184.921875 176.21875 183.636719 176.15625 C 182.347656 176.09375 181.0625 175.996094 179.78125 175.871094 C 178.5 175.746094 177.21875 175.585938 175.945312 175.398438 C 174.671875 175.207031 173.402344 174.988281 172.136719 174.738281 C 170.871094 174.484375 169.617188 174.203125 168.367188 173.890625 C 167.113281 173.578125 165.875 173.234375 164.640625 172.859375 C 163.40625 172.484375 162.183594 172.082031 160.96875 171.648438 C 159.757812 171.210938 158.554688 170.75 157.363281 170.253906 C 156.171875 169.761719 154.996094 169.238281 153.828125 168.6875 C 152.664062 168.136719 151.515625 167.558594 150.378906 166.953125 C 149.242188 166.34375 148.121094 165.707031 147.015625 165.046875 C 145.910156 164.382812 144.820312 163.695312 143.75 162.976562 C 142.675781 162.261719 141.625 161.519531 140.589844 160.753906 C 139.554688 159.984375 138.539062 159.191406 137.542969 158.375 C 136.546875 157.558594 135.570312 156.714844 134.613281 155.851562 C 133.660156 154.984375 132.726562 154.097656 131.816406 153.183594 C 130.902344 152.273438 130.015625 151.339844 129.148438 150.386719 C 128.285156 149.429688 127.441406 148.453125 126.625 147.457031 C 125.808594 146.460938 125.015625 145.445312 124.246094 144.410156 C 123.480469 143.375 122.738281 142.324219 122.023438 141.25 C 121.304688 140.179688 120.617188 139.089844 119.953125 137.984375 C 119.292969 136.878906 118.65625 135.757812 118.046875 134.621094 C 117.441406 133.484375 116.863281 132.335938 116.3125 131.171875 C 115.761719 130.003906 115.238281 128.828125 114.746094 127.636719 C 114.25 126.445312 113.789062 125.242188 113.351562 124.03125 C 112.917969 122.816406 112.515625 121.59375 112.140625 120.359375 C 111.765625 119.125 111.421875 117.886719 111.109375 116.632812 C 110.796875 115.382812 110.515625 114.128906 110.261719 112.863281 C 110.011719 111.597656 109.792969 110.328125 109.601562 109.054688 C 109.414062 107.78125 109.253906 106.5 109.128906 105.21875 C 109.003906 103.9375 108.90625 102.652344 108.84375 101.363281 C 108.78125 100.078125 108.75 98.789062 108.75 97.5 C 108.75 96.210938 108.78125 94.921875 108.84375 93.636719 C 108.90625 92.347656 109.003906 91.0625 109.128906 89.78125 C 109.253906 88.5 109.414062 87.21875 109.601562 85.945312 C 109.792969 84.671875 110.011719 83.402344 110.261719 82.136719 C 110.515625 80.871094 110.796875 79.617188 111.109375 78.367188 C 111.421875 77.113281 111.765625 75.875 112.140625 74.640625 C 112.515625 73.40625 112.917969 72.183594 113.351562 70.96875 C 113.789062 69.757812 114.25 68.554688 114.746094 67.363281 C 115.238281 66.171875 115.761719 64.996094 116.3125 63.828125 C 116.863281 62.664062 117.441406 61.515625 118.046875 60.378906 C 118.65625 59.242188 119.292969 58.121094 119.953125 57.015625 C 120.617188 55.910156 121.304688 54.820312 122.023438 53.75 C 122.738281 52.675781 123.480469 51.625 124.246094 50.589844 C 125.015625 49.554688 125.808594 48.539062 126.625 47.542969 C 127.441406 46.546875 128.285156 45.570312 129.148438 44.613281 C 130.015625 43.660156 130.902344 42.726562 131.816406 41.816406 C 132.726562 40.902344 133.660156 40.015625 134.613281 39.148438 C 135.570312 38.285156 136.546875 37.441406 137.542969 36.625 C 138.539062 35.808594 139.554688 35.015625 140.589844 34.246094 C 141.625 33.480469 142.675781 32.738281 143.75 32.023438 C 144.820312 31.304688 145.910156 30.617188 147.015625 29.953125 C 148.121094 29.292969 149.242188 28.65625 150.378906 28.046875 C 151.515625 27.441406 152.664062 26.863281 153.828125 26.3125 C 154.996094 25.761719 156.171875 25.238281 157.363281 24.746094 C 158.554688 24.25 159.757812 23.789062 160.96875 23.351562 C 162.183594 22.917969 163.40625 22.515625 164.640625 22.140625 C 165.875 21.765625 167.113281 21.421875 168.367188 21.109375 C 169.617188 20.796875 170.871094 20.515625 172.136719 20.261719 C 173.402344 20.011719 174.671875 19.792969 175.945312 19.601562 C 177.21875 19.414062 178.5 19.253906 179.78125 19.128906 C 181.0625 19.003906 182.347656 18.90625 183.636719 18.84375 C 184.921875 18.78125 186.210938 18.75 187.5 18.75 C 188.789062 18.75 190.078125 18.78125 191.363281 18.84375 C 192.652344 18.90625 193.9375 19.003906 195.21875 19.128906 C 196.5 19.253906 197.78125 19.414062 199.054688 19.601562 C 200.328125 19.792969 201.597656 20.011719 202.863281 20.261719 C 204.128906 20.515625 205.382812 20.796875 206.632812 21.109375 C 207.886719 21.421875 209.125 21.765625 210.359375 22.140625 C 211.59375 22.515625 212.816406 22.917969 214.03125 23.351562 C 215.242188 23.789062 216.445312 24.25 217.636719 24.746094 C 218.828125 25.238281 220.003906 25.761719 221.171875 26.3125 C 222.335938 26.863281 223.484375 27.441406 224.621094 28.046875 C 225.757812 28.65625 226.878906 29.292969 227.984375 29.953125 C 229.089844 30.617188 230.179688 31.304688 231.25 32.023438 C 232.324219 32.738281 233.375 33.480469 234.410156 34.246094 C 235.445312 35.015625 236.460938 35.808594 237.457031 36.625 C 238.453125 37.441406 239.429688 38.285156 240.386719 39.148438 C 241.339844 40.015625 242.273438 40.902344 243.183594 41.816406 C 244.097656 42.726562 244.984375 43.660156 245.851562 44.613281 C 246.714844 45.570312 247.558594 46.546875 248.375 47.542969 C 249.191406 48.539062 249.984375 49.554688 250.753906 50.589844 C 251.519531 51.625 252.261719 52.675781 252.976562 53.75 C 253.695312 54.820312 254.382812 55.910156 255.046875 57.015625 C 255.707031 58.121094 256.34375 59.242188 256.953125 60.378906 C 257.558594 61.515625 258.136719 62.664062 258.6875 63.828125 C 259.238281 64.996094 259.761719 66.171875 260.253906 67.363281 C 260.75 68.554688 261.210938 69.757812 261.648438 70.96875 C 262.082031 72.183594 262.484375 73.40625 262.859375 74.640625 C 263.234375 75.875 263.578125 77.113281 263.890625 78.367188 C 264.203125 79.617188 264.484375 80.871094 264.738281 82.136719 C 264.988281 83.402344 265.207031 84.671875 265.398438 85.945312 C 265.585938 87.21875 265.746094 88.5 265.871094 89.78125 C 265.996094 91.0625 266.09375 92.347656 266.15625 93.636719 C 266.21875 94.921875 266.25 96.210938 266.25 97.5 Z M 266.25 97.5 " fill-opacity="1" fill-rule="nonzero"/></g><g clip-path="url(#39430ab8bb)"><path fill="#141414" d="M 52.5 255 L 52.5 345 C 52.5 351.210938 57.539062 356.25 63.75 356.25 L 311.25 356.25 C 317.460938 356.25 322.5 351.210938 322.5 345 L 322.5 255 C 322.5 181.132812 52.5 181.132812 52.5 255 Z M 52.5 255 " fill-opacity="1" fill-rule="nonzero"/></g></svg>